<?xml version="1.0" standalone="no"?>
<!DOCTYPE svg PUBLIC "-//W3C//DTD SVG 20010904//EN"
 "http://www.w3.org/TR/2001/REC-SVG-20010904/DTD/svg10.dtd">
<svg version="1.0" xmlns="http://www.w3.org/2000/svg"
 width="1024.000000pt" height="1024.000000pt" viewBox="0 0 1024.000000 1024.000000"
 preserveAspectRatio="xMidYMid meet">

<g transform="translate(0.000000,1024.000000) scale(0.100000,-0.100000)"
fill="#000000" stroke="none">
<path d="M4898 7883 c34 -2 90 -2 125 0 34 2 6 3 -63 3 -69 0 -97 -1 -62 -3z"/>
<path d="M5278 7883 c7 -3 16 -2 19 1 4 3 -2 6 -13 5 -11 0 -14 -3 -6 -6z"/>
<path d="M4550 7860 c-316 -42 -530 -98 -727 -190 -253 -119 -412 -270 -503
-479 -167 -384 -153 -1235 30 -1756 45 -128 149 -326 225 -427 160 -213 404
-388 715 -513 156 -62 417 -141 443 -132 6 2 -21 11 -59 21 -229 61 -488 165
-638 255 -279 169 -443 342 -583 616 -160 313 -245 779 -229 1256 16 477 102
738 308 935 247 237 660 378 1253 427 22 2 9 4 -30 4 -38 1 -131 -7 -205 -17z"/>
<path d="M5503 7873 c9 -2 23 -2 30 0 6 3 -1 5 -18 5 -16 0 -22 -2 -12 -5z"/>
<path d="M5608 7863 c6 -2 18 -2 25 0 6 3 1 5 -13 5 -14 0 -19 -2 -12 -5z"/>
<path d="M5703 7853 c9 -2 23 -2 30 0 6 3 -1 5 -18 5 -16 0 -22 -2 -12 -5z"/>
<path d="M5778 7843 c6 -2 18 -2 25 0 6 3 1 5 -13 5 -14 0 -19 -2 -12 -5z"/>
<path d="M5838 7833 c6 -2 18 -2 25 0 6 3 1 5 -13 5 -14 0 -19 -2 -12 -5z"/>
<path d="M5910 7820 c14 -4 36 -8 50 -8 22 0 22 1 -5 8 -16 4 -39 8 -50 8 -16
0 -15 -2 5 -8z"/>
<path d="M6005 7804 c209 -60 275 -82 364 -120 257 -112 414 -248 516 -446 87
-168 125 -324 146 -608 29 -390 -29 -863 -147 -1188 -84 -231 -189 -399 -353
-562 -130 -129 -212 -189 -398 -290 -70 -39 -124 -70 -119 -70 4 0 65 29 135
65 489 253 746 636 850 1266 52 314 62 516 41 817 -40 568 -233 853 -710 1046
-74 30 -253 83 -307 90 -21 3 -29 3 -18 0z"/>
<path d="M4350 7419 c-219 -37 -413 -97 -560 -177 -117 -62 -229 -175 -288
-291 -23 -46 -41 -86 -38 -88 2 -2 25 19 52 47 86 92 233 163 412 200 117 23
381 50 501 50 96 0 144 19 161 66 21 54 2 133 -40 176 -25 25 -35 28 -87 27
-32 -1 -83 -5 -113 -10z"/>
<path d="M5729 7416 c-33 -19 -59 -82 -59 -142 0 -98 24 -109 245 -118 286
-10 474 -44 623 -112 87 -40 190 -111 226 -156 68 -87 -6 73 -79 170 -63 83
-133 139 -254 201 -119 61 -237 101 -403 136 -159 34 -264 41 -299 21z"/>
<path d="M2842 7148 c-3 -51 -11 -68 -34 -68 -23 0 -69 -43 -90 -85 -42 -82
-74 -409 -65 -647 3 -76 2 -138 -2 -138 -4 0 -5 -16 -3 -35 3 -27 1 -35 -12
-35 -8 0 -13 -6 -10 -13 2 -7 -6 -22 -20 -34 l-24 -22 -7 77 c-10 121 -14 127
-9 12 4 -95 35 -284 48 -298 3 -3 5 12 3 34 -1 27 2 38 11 37 6 -2 12 4 12 12
0 8 6 15 14 15 14 0 33 -47 81 -203 32 -101 55 -126 185 -201 95 -55 124 -65
116 -39 -117 395 -170 793 -185 1378 -4 160 -8 273 -9 253z m-245 -1135 c-3
-10 -5 -2 -5 17 0 19 2 27 5 18 2 -10 2 -26 0 -35z"/>
<path d="M3977 6923 c-75 -15 -229 -92 -279 -139 -21 -19 -38 -37 -38 -40 0
-3 28 11 63 30 104 57 182 76 318 76 109 0 127 -3 197 -30 101 -39 163 -79
229 -147 29 -31 53 -53 53 -50 0 4 -11 30 -24 60 -43 99 -187 221 -286 242
-56 12 -168 11 -233 -2z"/>
<path d="M6075 6871 c-77 -13 -275 -137 -275 -173 0 -5 15 4 34 20 52 45 149
99 214 119 71 21 253 24 332 4 30 -7 88 -28 128 -47 82 -37 87 -30 9 15 -83
48 -185 71 -302 70 -55 -1 -118 -5 -140 -8z"/>
<path d="M3851 6794 c-29 -8 -87 -30 -127 -49 -72 -34 -75 -35 -110 -20 -20 8
-38 15 -40 15 -11 0 -1 -22 22 -49 l25 -30 -42 -21 c-30 -16 -55 -21 -90 -18
-27 1 -49 0 -49 -4 0 -4 16 -18 35 -31 28 -19 33 -26 22 -35 -21 -18 -92 -25
-116 -13 -17 9 -21 9 -21 -2 0 -20 85 -96 121 -109 17 -6 29 -17 29 -27 0 -45
44 -141 91 -200 54 -66 81 -79 33 -15 -26 34 -29 45 -29 113 1 95 32 165 111
250 82 89 222 153 329 150 l40 -1 -38 -9 c-165 -39 -282 -225 -249 -399 22
-121 90 -213 192 -263 129 -63 272 -40 379 59 82 76 114 144 115 244 1 100
-22 165 -86 238 -45 51 -44 50 16 -10 50 -52 76 -90 110 -160 24 -51 49 -111
56 -133 23 -69 22 -19 0 62 -67 248 -218 412 -430 468 -70 19 -228 18 -299 -1z
m322 -101 c-7 -2 -19 -2 -25 0 -7 3 -2 5 12 5 14 0 19 -2 13 -5z m187 -158
c21 -26 1 -79 -32 -83 -21 -3 -30 3 -42 27 -21 39 -20 47 4 71 22 22 43 17 70
-15z m-94 -35 c12 -41 12 -47 -6 -65 -12 -11 -20 -14 -20 -7 0 7 -7 12 -15 12
-27 0 -37 36 -20 76 20 48 44 42 61 -16z m-276 -207 c0 -9 20 -36 45 -59 72
-69 144 -71 219 -5 22 20 35 28 28 19 -8 -10 -11 -30 -8 -50 3 -18 8 -50 11
-72 7 -54 13 -59 43 -40 27 17 27 17 9 -4 -58 -64 -223 -87 -321 -43 -28 12
-65 33 -83 47 -38 29 -89 101 -79 111 3 3 6 1 6 -5 0 -17 17 -15 24 4 3 8 2
12 -4 9 -6 -3 -7 1 -4 9 3 9 11 16 16 16 6 0 8 11 6 25 -4 21 0 26 36 39 54
19 56 19 56 -1z"/>
<path d="M6110 6794 c-217 -58 -366 -221 -430 -472 -12 -46 -20 -86 -17 -88 2
-2 14 24 27 58 34 94 89 203 121 240 28 32 28 31 -7 -37 -35 -68 -36 -73 -32
-160 3 -79 8 -98 37 -153 40 -74 93 -125 170 -161 82 -38 191 -37 279 3 80 37
152 114 182 194 31 81 26 204 -12 283 -54 118 -145 179 -278 189 l-85 7 90 1
c163 3 291 -45 384 -143 115 -122 150 -272 85 -372 -24 -38 -24 -38 17 7 47
52 83 117 100 183 10 40 17 49 55 67 24 12 57 37 74 56 35 40 40 60 11 44 -28
-14 -66 -13 -108 5 l-37 16 29 18 c17 10 35 24 42 32 9 12 4 13 -32 11 -48 -4
-107 11 -125 33 -8 10 -5 19 15 39 37 37 31 46 -18 28 l-44 -16 -84 41 c-46
23 -108 46 -137 52 -73 15 -206 13 -272 -5z m219 -245 c35 -63 -29 -119 -76
-65 -27 31 -29 53 -8 83 19 27 64 18 84 -18z m-108 -31 c7 -13 13 -33 15 -45
2 -21 -2 -23 -42 -23 -39 0 -44 3 -44 23 0 12 7 31 15 41 8 11 15 16 15 11 0
-5 5 -4 12 3 16 16 15 16 29 -10z m80 -225 c0 -7 1 -34 1 -60 1 -27 7 -58 15
-70 10 -14 12 -30 7 -45 -4 -13 -7 -26 -6 -30 3 -13 -53 -46 -106 -63 -137
-45 -313 25 -373 149 -11 23 -13 33 -6 23 14 -17 17 -15 46 25 17 23 37 55 44
70 15 36 24 35 32 0 11 -54 90 -112 151 -112 60 0 136 62 149 120 6 26 9 28
26 17 10 -6 19 -17 20 -24z m57 -172 c-13 -17 -27 -30 -32 -30 -6 -1 3 13 19
29 37 38 43 39 13 1z"/>
<path d="M7393 6560 c0 -25 2 -35 4 -22 2 12 2 32 0 45 -2 12 -4 2 -4 -23z"/>
<path d="M2554 6410 c0 -74 1 -105 3 -67 2 37 2 97 0 135 -2 37 -3 6 -3 -68z"/>
<path d="M7382 6435 c-10 -197 -103 -706 -160 -877 -11 -32 -18 -58 -15 -58
11 0 136 68 194 105 60 39 69 49 89 102 12 32 30 91 41 132 20 79 49 323 49
416 0 51 -2 56 -19 50 -11 -3 -45 1 -75 8 -30 8 -57 12 -60 9 -3 -3 -6 0 -6 6
0 6 -7 9 -15 6 -11 -5 -15 8 -18 68 -1 40 -4 55 -5 33z"/>
<path d="M5088 6063 c7 -3 16 -2 19 1 4 3 -2 6 -13 5 -11 0 -14 -3 -6 -6z"/>
<path d="M5160 6059 c0 -5 5 -7 10 -4 6 3 10 8 10 11 0 2 -4 4 -10 4 -5 0 -10
-5 -10 -11z"/>
<path d="M4762 6030 c-14 -24 -13 -24 22 -6 22 11 24 15 11 20 -9 3 -17 6 -18
6 -1 0 -8 -9 -15 -20z"/>
<path d="M4690 6020 c0 -5 12 -10 26 -10 14 0 23 4 19 10 -3 6 -15 10 -26 10
-10 0 -19 -4 -19 -10z"/>
<path d="M5480 6026 c0 -2 7 -7 16 -10 8 -3 12 -2 9 4 -6 10 -25 14 -25 6z"/>
<path d="M4862 6009 c2 -7 10 -15 17 -17 8 -3 12 1 9 9 -2 7 -10 15 -17 17 -8
3 -12 -1 -9 -9z"/>
<path d="M5120 6016 c0 -2 7 -6 15 -10 8 -3 15 -1 15 4 0 6 -7 10 -15 10 -8 0
-15 -2 -15 -4z"/>
<path d="M4580 6000 c0 -5 7 -7 15 -4 8 4 15 8 15 10 0 2 -7 4 -15 4 -8 0 -15
-4 -15 -10z"/>
<path d="M5359 5997 c7 -7 14 -8 21 -1 6 6 2 10 -12 11 -16 2 -18 -1 -9 -10z"/>
<path d="M4640 5980 c-11 -7 -7 -10 18 -10 20 0 31 4 27 10 -8 13 -26 13 -45
0z"/>
<path d="M5577 5979 c7 -7 15 -10 18 -7 3 3 -2 9 -12 12 -14 6 -15 5 -6 -5z"/>
<path d="M4560 5960 c-11 -7 -5 -8 20 -4 43 8 51 14 19 14 -13 0 -31 -5 -39
-10z"/>
<path d="M4795 5959 c-4 -6 -5 -13 -2 -16 7 -7 27 6 27 18 0 12 -17 12 -25 -2z"/>
<path d="M4886 5961 c-19 -7 -18 -8 4 -14 25 -6 40 -2 40 14 0 11 -17 11 -44
0z"/>
<path d="M5030 5959 c0 -5 9 -9 20 -9 11 0 20 -4 20 -9 0 -5 9 -11 21 -14 16
-4 18 -3 9 8 -15 18 -70 37 -70 24z"/>
<path d="M4475 5950 c-3 -5 3 -10 14 -10 12 0 21 5 21 10 0 6 -6 10 -14 10 -8
0 -18 -4 -21 -10z"/>
<path d="M4720 5950 c0 -5 11 -10 25 -10 14 0 25 5 25 10 0 6 -11 10 -25 10
-14 0 -25 -4 -25 -10z"/>
<path d="M4965 5950 c3 -5 10 -10 16 -10 5 0 9 5 9 10 0 6 -7 10 -16 10 -8 0
-12 -4 -9 -10z"/>
<path d="M5195 5950 c-3 -5 1 -10 9 -10 9 0 16 5 16 10 0 6 -4 10 -9 10 -6 0
-13 -4 -16 -10z"/>
<path d="M5328 5953 c7 -3 16 -2 19 1 4 3 -2 6 -13 5 -11 0 -14 -3 -6 -6z"/>
<path d="M5768 5948 c5 -5 16 -8 23 -6 8 3 3 7 -10 11 -17 4 -21 3 -13 -5z"/>
<path d="M4435 5940 c-3 -5 1 -10 9 -10 9 0 16 5 16 10 0 6 -4 10 -9 10 -6 0
-13 -4 -16 -10z"/>
<path d="M4650 5920 c0 -5 5 -10 10 -10 6 0 10 5 10 10 0 6 -4 10 -10 10 -5 0
-10 -4 -10 -10z"/>
<path d="M3628 5913 c7 -3 16 -2 19 1 4 3 -2 6 -13 5 -11 0 -14 -3 -6 -6z"/>
<path d="M4325 5894 c-19 -15 -22 -21 -9 -15 18 9 52 41 43 41 -2 0 -17 -12
-34 -26z"/>
<path d="M4573 5913 c9 -2 23 -2 30 0 6 3 -1 5 -18 5 -16 0 -22 -2 -12 -5z"/>
<path d="M5608 5913 c7 -3 16 -2 19 1 4 3 -2 6 -13 5 -11 0 -14 -3 -6 -6z"/>
<path d="M5974 5911 c3 -5 20 -14 38 -20 38 -13 26 0 -15 17 -16 7 -26 8 -23
3z"/>
<path d="M4222 5893 c-18 -8 -31 -18 -28 -20 2 -2 21 5 43 16 45 24 33 28 -15
4z"/>
<path d="M4420 5895 c-31 -12 -32 -14 -10 -14 14 0 34 6 44 14 24 18 13 18
-34 0z"/>
<path d="M4725 5900 c3 -5 15 -10 26 -10 10 0 19 5 19 10 0 6 -12 10 -26 10
-14 0 -23 -4 -19 -10z"/>
<path d="M5508 5903 c7 -3 16 -2 19 1 4 3 -2 6 -13 5 -11 0 -14 -3 -6 -6z"/>
<path d="M5798 5898 c6 -6 18 -8 28 -6 14 3 12 5 -9 10 -19 3 -25 2 -19 -4z"/>
<path d="M3520 5875 c0 -14 2 -25 4 -25 2 0 6 11 8 25 3 14 1 25 -3 25 -5 0
-9 -11 -9 -25z"/>
<path d="M4123 5890 c-13 -5 -23 -11 -23 -14 0 -7 40 6 46 15 6 10 6 10 -23
-1z"/>
<path d="M4658 5893 c7 -3 16 -2 19 1 4 3 -2 6 -13 5 -11 0 -14 -3 -6 -6z"/>
<path d="M4810 5891 c0 -4 13 -8 30 -7 39 1 39 16 0 16 -16 0 -30 -4 -30 -9z"/>
<path d="M4960 5890 c0 -5 7 -10 15 -10 8 0 15 5 15 10 0 6 -7 10 -15 10 -8 0
-15 -4 -15 -10z"/>
<path d="M5060 5890 c0 -5 7 -10 15 -10 8 0 15 5 15 10 0 6 -7 10 -15 10 -8 0
-15 -4 -15 -10z"/>
<path d="M5160 5890 c0 -5 7 -10 16 -10 8 0 12 5 9 10 -3 6 -10 10 -16 10 -5
0 -9 -4 -9 -10z"/>
<path d="M5268 5893 c6 -2 18 -2 25 0 6 3 1 5 -13 5 -14 0 -19 -2 -12 -5z"/>
<path d="M5428 5893 c7 -3 16 -2 19 1 4 3 -2 6 -13 5 -11 0 -14 -3 -6 -6z"/>
<path d="M3895 5880 c-3 -6 1 -7 9 -4 18 7 21 14 7 14 -6 0 -13 -4 -16 -10z"/>
<path d="M3994 5874 c-18 -14 -18 -14 6 -3 31 14 36 19 24 19 -6 0 -19 -7 -30
-16z"/>
<path d="M4540 5886 c0 -2 11 -6 25 -8 14 -3 25 -1 25 3 0 5 -11 9 -25 9 -14
0 -25 -2 -25 -4z"/>
<path d="M4890 5880 c0 -5 10 -10 23 -10 18 0 19 2 7 10 -19 13 -30 13 -30 0z"/>
<path d="M5688 5883 c7 -3 16 -2 19 1 4 3 -2 6 -13 5 -11 0 -14 -3 -6 -6z"/>
<path d="M5925 5880 c3 -5 8 -10 11 -10 2 0 4 5 4 10 0 6 -5 10 -11 10 -5 0
-7 -4 -4 -10z"/>
<path d="M5328 5873 c6 -2 18 -2 25 0 6 3 1 5 -13 5 -14 0 -19 -2 -12 -5z"/>
<path d="M4790 5860 c8 -5 24 -9 35 -9 l20 0 -20 9 c-11 5 -27 9 -35 9 -13 1
-13 0 0 -9z"/>
<path d="M3798 5831 c-26 -16 -52 -40 -59 -53 -10 -19 -6 -18 22 9 19 17 50
40 69 52 19 11 30 21 24 21 -5 0 -31 -13 -56 -29z"/>
<path d="M5097 5853 c-12 -11 -8 -23 8 -23 8 0 15 7 15 15 0 16 -12 20 -23 8z"/>
<path d="M3750 5835 c-7 -8 -8 -15 -2 -15 5 0 15 7 22 15 7 8 8 15 2 15 -5 0
-15 -7 -22 -15z"/>
<path d="M4475 5840 c-3 -5 -2 -10 4 -10 5 0 13 5 16 10 3 6 2 10 -4 10 -5 0
-13 -4 -16 -10z"/>
<path d="M4645 5840 c-17 -7 -15 -9 13 -9 17 -1 32 4 32 9 0 12 -17 12 -45 0z"/>
<path d="M5010 5840 c0 -5 7 -7 15 -4 8 4 15 8 15 10 0 2 -7 4 -15 4 -8 0 -15
-4 -15 -10z"/>
<path d="M3588 5826 c-23 -17 -23 -26 2 -26 13 0 20 7 20 20 0 23 0 23 -22 6z"/>
<path d="M3985 5810 c-56 -33 -54 -41 3 -10 49 25 69 40 57 39 -5 0 -32 -13
-60 -29z"/>
<path d="M4573 5833 c9 -2 23 -2 30 0 6 3 -1 5 -18 5 -16 0 -22 -2 -12 -5z"/>
<path d="M5190 5829 c0 -5 5 -7 10 -4 6 3 10 8 10 11 0 2 -4 4 -10 4 -5 0 -10
-5 -10 -11z"/>
<path d="M6224 5826 c11 -9 24 -16 30 -16 12 0 7 5 -24 19 -24 11 -24 11 -6
-3z"/>
<path d="M4120 5820 c-8 -5 -12 -11 -9 -14 3 -3 14 1 25 9 21 16 8 20 -16 5z"/>
<path d="M4404 5814 c-18 -14 -18 -15 4 -4 12 6 22 13 22 15 0 8 -5 6 -26 -11z"/>
<path d="M4725 5820 c-18 -8 -17 -9 8 -9 16 -1 26 3 22 9 -3 6 -7 10 -8 9 -1
0 -11 -4 -22 -9z"/>
<path d="M4810 5820 c0 -5 14 -10 31 -10 17 0 28 4 24 10 -3 6 -17 10 -31 10
-13 0 -24 -4 -24 -10z"/>
<path d="M5400 5820 c-9 -6 -10 -10 -3 -10 6 0 15 5 18 10 8 12 4 12 -15 0z"/>
<path d="M6020 5826 c0 -3 14 -12 30 -21 17 -9 30 -13 30 -11 0 3 -13 12 -30
21 -16 9 -30 13 -30 11z"/>
<path d="M6132 5814 c10 -10 20 -15 24 -12 3 4 -5 12 -18 18 -22 12 -22 12 -6
-6z"/>
<path d="M3662 5808 c-14 -14 -16 -38 -3 -38 5 0 14 7 21 15 17 20 0 41 -18
23z"/>
<path d="M3860 5800 l-25 -20 40 16 c49 20 54 24 29 24 -10 0 -30 -9 -44 -20z"/>
<path d="M4194 5804 c-17 -14 -17 -15 -1 -10 10 3 25 6 33 6 8 0 14 5 14 10 0
15 -24 12 -46 -6z"/>
<path d="M4280 5810 c-8 -5 -12 -11 -9 -14 2 -3 11 -1 19 4 8 5 12 11 9 14 -2
3 -11 1 -19 -4z"/>
<path d="M4930 5805 c7 -9 15 -13 17 -11 7 7 -7 26 -19 26 -6 0 -6 -6 2 -15z"/>
<path d="M5498 5813 c7 -3 16 -2 19 1 4 3 -2 6 -13 5 -11 0 -14 -3 -6 -6z"/>
<path d="M5558 5813 c7 -3 16 -2 19 1 4 3 -2 6 -13 5 -11 0 -14 -3 -6 -6z"/>
<path d="M5960 5816 c0 -3 9 -10 20 -16 11 -6 20 -8 20 -6 0 3 -9 10 -20 16
-11 6 -20 8 -20 6z"/>
<path d="M6587 5801 c3 -12 9 -21 14 -21 14 0 11 16 -5 29 -12 10 -13 8 -9 -8z"/>
<path d="M6390 5796 c0 -2 8 -10 18 -17 15 -13 16 -12 3 4 -13 16 -21 21 -21
13z"/>
<path d="M4017 5754 c-21 -14 -36 -28 -34 -31 3 -2 13 3 24 11 10 9 27 22 38
30 34 26 12 18 -28 -10z"/>
<path d="M3520 5760 c0 -5 5 -10 11 -10 5 0 7 5 4 10 -3 6 -8 10 -11 10 -2 0
-4 -4 -4 -10z"/>
<path d="M3828 5741 c-36 -33 -35 -43 1 -12 13 11 28 22 34 24 7 2 9 7 5 11
-3 4 -21 -6 -40 -23z"/>
<path d="M4144 5760 c-12 -5 -25 -14 -29 -20 -4 -7 7 -4 24 4 17 9 31 19 31
21 0 6 1 6 -26 -5z"/>
<path d="M5022 5758 c6 -18 28 -21 28 -4 0 9 -7 16 -16 16 -9 0 -14 -5 -12
-12z"/>
<path d="M5090 5760 c-8 -5 -12 -11 -9 -14 2 -3 11 -1 19 4 8 5 12 11 9 14 -2
3 -11 1 -19 -4z"/>
<path d="M5155 5760 c-3 -5 -1 -10 4 -10 6 0 11 5 11 10 0 6 -2 10 -4 10 -3 0
-8 -4 -11 -10z"/>
<path d="M5220 5756 c0 -9 5 -16 10 -16 6 0 10 4 10 9 0 6 -4 13 -10 16 -5 3
-10 -1 -10 -9z"/>
<path d="M6210 5766 c0 -3 9 -10 20 -16 11 -6 20 -8 20 -6 0 3 -9 10 -20 16
-11 6 -20 8 -20 6z"/>
<path d="M4700 5749 c0 -11 54 -18 69 -9 9 5 0 9 -27 12 -23 2 -42 1 -42 -3z"/>
<path d="M4530 5740 c-8 -5 -10 -10 -5 -10 6 0 17 5 25 10 8 5 11 10 5 10 -5
0 -17 -5 -25 -10z"/>
<path d="M5493 5743 c9 -2 25 -2 35 0 9 3 1 5 -18 5 -19 0 -27 -2 -17 -5z"/>
<path d="M6452 5734 c10 -10 20 -16 22 -13 3 3 -5 11 -17 18 -21 13 -21 12 -5
-5z"/>
<path d="M3697 5733 c-4 -3 -7 -11 -7 -17 0 -6 5 -5 12 2 6 6 9 14 7 17 -3 3
-9 2 -12 -2z"/>
<path d="M4285 5715 c-22 -14 -33 -25 -25 -25 8 1 29 12 45 25 38 31 31 31
-20 0z"/>
<path d="M5930 5736 c0 -2 8 -10 18 -17 15 -13 16 -12 3 4 -13 16 -21 21 -21
13z"/>
<path d="M3630 5715 c14 -7 27 -11 30 -9 6 7 -22 24 -40 23 -9 0 -5 -6 10 -14z"/>
<path d="M3750 5720 c0 -5 6 -10 14 -10 8 0 18 5 21 10 3 6 -3 10 -14 10 -12
0 -21 -4 -21 -10z"/>
<path d="M3880 5710 c-14 -11 -20 -20 -15 -20 6 0 21 9 35 20 14 11 21 20 15
20 -5 0 -21 -9 -35 -20z"/>
<path d="M4128 5714 c-16 -8 -28 -17 -28 -19 0 -11 19 -4 41 15 29 23 24 25
-13 4z"/>
<path d="M4449 5713 c-13 -16 -12 -17 4 -4 16 13 21 21 13 21 -2 0 -10 -8 -17
-17z"/>
<path d="M6127 5709 c12 -12 25 -20 28 -17 3 3 -7 13 -22 23 l-28 17 22 -23z"/>
<path d="M3530 5710 c0 -5 9 -14 20 -20 11 -6 20 -7 20 -3 0 5 -9 14 -20 21
-11 7 -20 8 -20 2z"/>
<path d="M3936 5701 c-17 -11 -34 -17 -39 -14 -6 3 -7 1 -3 -6 4 -6 2 -19 -5
-27 -25 -31 -2 -17 40 24 49 47 50 51 7 23z"/>
<path d="M4185 5700 c-16 -11 -25 -20 -19 -20 11 0 64 39 54 40 -3 0 -18 -9
-35 -20z"/>
<path d="M6374 5701 c20 -22 26 -25 26 -13 0 4 -10 13 -22 21 -23 14 -23 14
-4 -8z"/>
<path d="M3998 5680 c-43 -38 -24 -38 22 0 19 17 29 30 22 30 -6 0 -26 -13
-44 -30z"/>
<path d="M4370 5699 c0 -5 5 -7 10 -4 6 3 10 8 10 11 0 2 -4 4 -10 4 -5 0 -10
-5 -10 -11z"/>
<path d="M4648 5703 c7 -3 16 -2 19 1 4 3 -2 6 -13 5 -11 0 -14 -3 -6 -6z"/>
<path d="M5598 5703 c7 -3 16 -2 19 1 4 3 -2 6 -13 5 -11 0 -14 -3 -6 -6z"/>
<path d="M6050 5706 c0 -3 9 -10 20 -16 11 -6 20 -8 20 -6 0 3 -9 10 -20 16
-11 6 -20 8 -20 6z"/>
<path d="M6267 5689 c12 -12 24 -21 27 -18 2 2 -8 13 -22 23 l-27 19 22 -24z"/>
<path d="M6355 5660 c21 -22 41 -40 44 -40 3 0 -13 18 -34 40 -21 22 -41 40
-44 40 -3 0 13 -18 34 -40z"/>
<path d="M3703 5677 c-12 -5 -25 -23 -28 -38 -6 -24 -12 -29 -36 -29 -17 0
-40 5 -51 11 -14 8 -23 8 -31 0 -8 -8 -6 -11 6 -11 9 0 17 -4 17 -10 0 -5 6
-7 14 -4 8 3 17 1 20 -5 4 -6 14 -7 23 -4 11 4 14 3 9 -5 -4 -7 -18 -10 -34
-6 -16 4 -23 3 -19 -2 5 -5 14 -9 20 -9 5 0 12 -5 14 -11 2 -6 -10 -8 -31 -6
-18 2 -37 -1 -40 -7 -5 -7 3 -11 21 -11 20 0 24 -3 14 -9 -8 -5 -10 -14 -6
-21 5 -8 4 -11 -2 -7 -7 5 -9 -14 -6 -56 4 -44 12 -71 29 -93 13 -17 20 -34
17 -38 -4 -3 -2 -6 4 -6 5 0 23 -12 39 -26 49 -43 105 -76 124 -71 9 2 25 0
35 -6 12 -6 16 -6 12 1 -4 5 7 12 25 16 17 3 29 9 26 12 -3 3 5 16 19 30 22
22 24 30 18 74 -4 28 -3 50 2 50 5 0 9 9 9 20 0 12 -5 19 -12 16 -9 -4 -10 4
-3 27 12 41 12 42 -6 27 -13 -10 -15 -9 -15 10 0 13 7 32 17 42 15 17 15 18 0
18 -9 0 -19 -11 -23 -24 -3 -14 -14 -32 -24 -41 -16 -15 -17 -14 -13 10 3 14
10 25 16 25 7 0 7 4 -1 12 -10 10 -18 6 -37 -16 -18 -21 -25 -25 -25 -13 0 20
-20 23 -21 5 0 -7 -5 -2 -10 11 -8 19 -12 21 -24 11 -13 -11 -14 -10 -9 6 4
10 16 29 27 41 24 26 16 43 -8 19 -21 -21 -25 -20 -20 4 4 23 -13 27 -21 5 -4
-8 -10 -15 -16 -15 -5 0 -6 5 -2 11 4 8 -1 9 -17 5 -23 -7 -23 -6 -5 8 10 9
23 13 29 9 6 -3 7 -1 3 5 -3 6 2 15 11 21 15 8 15 10 3 11 -9 0 -22 -6 -29
-12 -10 -11 -11 -9 -5 5 4 10 16 22 27 26 11 4 16 10 11 13 -5 3 -19 1 -31 -5z
m-3 -111 c0 -2 -9 -6 -20 -9 -11 -3 -18 -1 -14 4 5 9 34 13 34 5z m40 -14 c0
-5 -7 -17 -16 -28 -8 -10 -14 -14 -11 -9 2 6 7 18 10 28 7 17 17 23 17 9z"/>
<path d="M3770 5675 c-18 -22 17 -50 39 -32 12 10 11 13 -7 15 -13 2 -19 8
-15 18 7 18 -1 18 -17 -1z"/>
<path d="M4525 5680 c-13 -6 -15 -9 -5 -9 8 0 22 4 30 9 18 12 2 12 -25 0z"/>
<path d="M3592 5668 c6 -16 36 -34 44 -25 9 9 -15 37 -33 37 -8 0 -13 -5 -11
-12z"/>
<path d="M6480 5660 c0 -5 5 -10 11 -10 5 0 7 5 4 10 -3 6 -8 10 -11 10 -2 0
-4 -4 -4 -10z"/>
<path d="M6560 5655 c7 -8 17 -15 22 -15 6 0 5 7 -2 15 -7 8 -17 15 -22 15 -6
0 -5 -7 2 -15z"/>
<path d="M6640 5660 c0 -5 5 -10 11 -10 5 0 7 5 4 10 -3 6 -8 10 -11 10 -2 0
-4 -4 -4 -10z"/>
<path d="M3900 5620 c-48 -42 -70 -50 -70 -25 0 8 -4 15 -9 15 -17 0 -23 -20
-16 -48 6 -25 8 -25 19 -9 16 21 36 22 36 1 0 -8 5 -12 10 -9 6 3 10 14 10 23
0 9 17 33 37 54 48 49 40 48 -17 -2z"/>
<path d="M4009 5630 c-33 -17 -69 -50 -56 -50 8 0 97 60 97 66 0 6 -1 5 -41
-16z"/>
<path d="M4089 5620 c-17 -14 -20 -19 -9 -20 8 0 21 9 28 20 15 25 11 25 -19
0z"/>
<path d="M4960 5613 c-14 -13 -20 -23 -15 -22 6 1 12 1 15 0 16 -6 90 -10 90
-5 0 11 -29 34 -43 34 -9 0 -17 4 -19 9 -1 4 -14 -3 -28 -16z"/>
<path d="M4180 5620 c-9 -6 -10 -10 -3 -10 6 0 15 5 18 10 8 12 4 12 -15 0z"/>
<path d="M6147 5619 c7 -7 15 -10 18 -7 3 3 -2 9 -12 12 -14 6 -15 5 -6 -5z"/>
<path d="M6254 5621 c4 -6 16 -16 28 -22 15 -8 18 -8 14 0 -4 6 -16 16 -28 22
-15 8 -18 8 -14 0z"/>
<path d="M6577 5599 c7 -7 15 -10 18 -7 3 3 -2 9 -12 12 -14 6 -15 5 -6 -5z"/>
<path d="M6446 5585 c4 -8 11 -15 16 -15 6 0 5 6 -2 15 -7 8 -14 15 -16 15 -2
0 -1 -7 2 -15z"/>
<path d="M6512 5580 c7 -11 17 -20 22 -20 5 0 1 9 -9 20 -10 11 -20 20 -22 20
-2 0 2 -9 9 -20z"/>
<path d="M6380 5586 c0 -2 8 -10 18 -17 15 -13 16 -12 3 4 -13 16 -21 21 -21
13z"/>
<path d="M3973 5540 c-13 -15 -23 -34 -23 -40 0 -7 10 0 22 16 13 16 26 31 30
32 10 5 10 22 1 21 -5 0 -18 -13 -30 -29z"/>
<path d="M4085 5540 c-16 -16 -26 -32 -24 -35 3 -3 18 9 34 25 16 16 26 32 24
35 -3 3 -18 -9 -34 -25z"/>
<path d="M3835 5540 c-3 -5 -1 -10 4 -10 6 0 11 5 11 10 0 6 -2 10 -4 10 -3 0
-8 -4 -11 -10z"/>
<path d="M4942 5528 c-27 -27 -13 -38 51 -38 l62 1 -28 24 c-30 27 -66 32 -85
13z"/>
<path d="M5255 5526 c-16 -12 -13 -14 31 -19 56 -6 67 -1 40 19 -25 18 -47 18
-71 0z"/>
<path d="M6290 5536 c0 -2 8 -10 18 -17 15 -13 16 -12 3 4 -13 16 -21 21 -21
13z"/>
<path d="M6605 5530 c3 -5 8 -10 11 -10 2 0 4 5 4 10 0 6 -5 10 -11 10 -5 0
-7 -4 -4 -10z"/>
<path d="M4144 5516 c-10 -8 -17 -16 -14 -19 3 -2 14 4 24 14 23 22 18 25 -10
5z"/>
<path d="M6530 5516 c0 -2 8 -10 18 -17 15 -13 16 -12 3 4 -13 16 -21 21 -21
13z"/>
<path d="M6495 5500 c3 -5 8 -10 11 -10 2 0 4 5 4 10 0 6 -5 10 -11 10 -5 0
-7 -4 -4 -10z"/>
<path d="M3996 5481 c-19 -21 -12 -28 13 -12 7 5 12 14 9 21 -2 7 -10 4 -22
-9z"/>
<path d="M6470 5491 c0 -6 4 -13 10 -16 6 -3 7 1 4 9 -7 18 -14 21 -14 7z"/>
<path d="M6550 5436 c0 -8 4 -17 9 -20 5 -4 7 3 4 14 -6 23 -13 26 -13 6z"/>
<path d="M4512 5208 c2 -6 13 -16 24 -22 50 -27 110 -73 146 -112 22 -24 45
-41 51 -37 5 3 7 1 4 -4 -9 -14 19 -37 34 -27 7 4 9 3 5 -4 -8 -14 41 -52 59
-46 8 3 17 14 20 24 7 21 55 28 210 30 61 0 135 7 165 15 30 7 89 18 130 24
135 20 251 64 340 129 53 39 56 42 37 42 -9 0 -31 -13 -49 -29 -44 -38 -122
-76 -194 -95 -107 -28 -471 -49 -434 -26 12 8 10 10 -7 10 -13 0 -23 5 -23 10
0 6 -3 9 -7 9 -17 -3 -33 1 -32 9 3 19 -2 33 -10 27 -5 -3 -13 0 -17 6 -4 8
-3 9 4 5 7 -4 12 -2 12 4 0 6 -7 13 -15 16 -8 4 -12 11 -9 18 3 6 -2 2 -12 -9
-15 -18 -16 -18 -10 -1 5 13 2 17 -9 13 -8 -4 -17 -2 -20 4 -4 5 -3 9 2 8 4
-1 15 0 23 4 8 3 22 8 30 11 8 3 -1 4 -20 1 -19 -3 -62 -16 -95 -30 -33 -13
-70 -25 -82 -25 -13 0 -23 -4 -23 -8 0 -4 -22 -7 -50 -6 -40 2 -60 10 -99 38
-48 35 -86 47 -79 24z"/>
<path d="M4846 4951 c-6 -10 22 -37 29 -29 8 7 -5 38 -15 38 -5 0 -11 -4 -14
-9z"/>
<path d="M5960 4505 c-14 -8 -20 -14 -15 -14 6 0 21 6 35 14 14 8 21 14 15 14
-5 0 -21 -6 -35 -14z"/>
<path d="M5785 4440 c-13 -6 -15 -9 -5 -9 8 0 22 4 30 9 18 12 2 12 -25 0z"/>
<path d="M5685 4410 c-13 -5 -14 -9 -5 -9 8 0 24 4 35 9 13 5 14 9 5 9 -8 0
-24 -4 -35 -9z"/>
<path d="M5638 4393 c7 -3 16 -2 19 1 4 3 -2 6 -13 5 -11 0 -14 -3 -6 -6z"/>
<path d="M5575 4380 c-13 -5 -14 -9 -5 -9 8 0 24 4 35 9 13 5 14 9 5 9 -8 0
-24 -4 -35 -9z"/>
<path d="M4758 4353 c7 -3 16 -2 19 1 4 3 -2 6 -13 5 -11 0 -14 -3 -6 -6z"/>
<path d="M4914 4152 c11 -12 14 -22 8 -22 -7 0 -7 -8 1 -24 7 -13 16 -22 22
-18 5 3 4 -1 -3 -10 -10 -13 -10 -18 -1 -24 7 -4 14 -3 16 3 2 6 12 9 21 6 9
-2 33 3 52 11 19 8 31 15 26 16 -13 0 31 40 44 40 6 0 9 4 6 9 -4 5 0 12 6 14
7 3 -31 6 -84 6 -53 1 -105 4 -115 8 -17 6 -17 5 1 -15z"/>
<path d="M4550 4021 c-18 -5 -36 -28 -63 -76 -57 -104 -82 -137 -127 -165 -46
-29 -51 -54 -20 -104 94 -154 568 -274 930 -236 338 35 604 142 649 263 16 40
14 45 -18 61 -49 26 -90 75 -131 155 -21 43 -45 83 -53 90 -9 7 -41 15 -71 18
-52 5 -56 4 -56 -16 l0 -21 -465 0 c-458 0 -465 0 -465 20 0 17 -6 20 -42 19
-24 -1 -54 -4 -68 -8z"/>
<path d="M3460 3488 c-291 -40 -413 -87 -545 -210 -203 -189 -278 -380 -316
-802 -14 -161 -28 -138 120 -203 88 -39 264 -99 496 -170 70 -21 85 -28 65
-32 l-25 -6 0 -180 c0 -163 -10 -278 -34 -405 -12 -66 -33 -182 -36 -205 -1
-11 -3 -20 -4 -20 -1 0 -3 -18 -5 -40 -1 -22 -6 -51 -11 -65 -11 -35 -12 -61
-3 -88 5 -15 4 -21 -2 -17 -6 3 -11 0 -11 -7 -1 -7 -3 -26 -5 -43 -3 -16 -5
-88 -6 -160 -2 -74 -7 -134 -13 -138 -7 -6 -6 -10 3 -14 14 -5 17 -43 3 -43
-5 0 -12 6 -14 13 -4 7 -6 6 -6 -4 -1 -9 6 -22 14 -29 8 -7 15 -23 15 -36 0
-15 -6 -24 -15 -24 -11 0 -15 -11 -15 -36 0 -21 4 -33 10 -29 5 3 10 -1 10
-10 0 -9 -4 -13 -10 -10 -5 3 -10 0 -11 -7 0 -7 -2 -24 -5 -37 -2 -14 1 -28 8
-33 10 -6 10 -10 2 -15 -13 -9 -16 -63 -4 -63 4 0 11 -7 14 -16 4 -10 2 -13
-6 -8 -8 5 -9 2 -5 -10 4 -10 7 -26 7 -37 0 -11 7 -19 16 -19 13 0 14 -3 4
-15 -6 -8 -8 -20 -4 -26 5 -9 2 -10 -9 -6 -11 4 -17 1 -17 -8 0 -8 5 -15 10
-15 6 0 10 -8 10 -17 0 -16 -2 -16 -11 -3 -8 12 -9 11 -5 -6 4 -11 -1 -40 -9
-64 -8 -23 -15 -50 -14 -59 1 -37 108 307 232 754 125 445 121 427 103 504
-40 170 -50 302 -36 464 20 238 87 538 187 837 136 411 153 584 79 817 -40
126 -35 123 -196 101z m-190 -2874 c0 -8 -5 -12 -10 -9 -6 4 -8 11 -5 16 9 14
15 11 15 -7z m-30 -20 c0 -14 -4 -23 -8 -20 -5 3 -6 -8 -4 -24 3 -20 -2 -34
-16 -46 -17 -14 -19 -22 -11 -43 8 -20 8 -23 -2 -14 -6 6 -11 23 -11 37 0 14
-4 23 -8 21 -5 -3 -6 4 -3 15 3 11 10 20 15 20 6 0 8 13 5 30 -5 22 -3 30 8
30 8 0 15 5 15 10 0 6 5 10 10 10 6 0 10 -12 10 -26z"/>
<path d="M3200 525 c-11 -13 -10 -14 4 -9 9 3 16 10 16 15 0 13 -6 11 -20 -6z"/>
<path d="M6625 3478 c-8 -13 -28 -59 -42 -103 -25 -73 -27 -94 -27 -240 -1
-182 13 -253 104 -530 58 -178 102 -338 126 -455 10 -47 21 -89 25 -94 4 -4
88 15 188 43 335 95 633 208 647 246 8 19 -13 262 -32 376 -49 294 -203 534
-424 657 -89 50 -199 80 -371 102 -194 24 -175 25 -194 -2z"/>
<path d="M6863 1515 c0 -22 2 -30 4 -17 2 12 2 30 0 40 -3 9 -5 -1 -4 -23z"/>
<path d="M6852 1410 c0 -19 2 -27 5 -17 2 9 2 25 0 35 -3 9 -5 1 -5 -18z"/>
<path d="M6842 1350 c0 -14 2 -19 5 -12 2 6 2 18 0 25 -3 6 -5 1 -5 -13z"/>
<path d="M6826 1289 c-8 -42 0 -50 9 -9 4 17 5 34 2 36 -2 3 -7 -10 -11 -27z"/>
<path d="M6812 1220 c0 -14 2 -19 5 -12 2 6 2 18 0 25 -3 6 -5 1 -5 -13z"/>
<path d="M6811 1174 c0 -11 3 -14 6 -6 3 7 2 16 -1 19 -3 4 -6 -2 -5 -13z"/>
<path d="M4885 828 c-137 -11 -321 -48 -445 -89 -52 -17 -234 -100 -405 -184
-170 -83 -319 -156 -330 -161 -19 -9 -20 -14 -11 -202 l8 -192 1414 0 c777 0
1415 3 1417 8 3 4 8 90 12 192 l7 185 -339 167 c-302 150 -402 192 -538 227
-209 54 -505 72 -790 49z"/>
<path d="M7081 205 c-1 -6 15 -56 34 -110 19 -55 32 -87 30 -70 -7 35 -64 195
-64 180z"/>
</g>
</svg>
